<?xml version="1.0" encoding="UTF-8" standalone="no"?>
<!-- Created with Inkscape (http://www.inkscape.org/) -->

<svg
   id="svg2"
   version="1.1"
   inkscape:version="1.4.2 (f4327f4, 2025-05-13)"
   width="120"
   height="141"
   sodipodi:docname="Meuble_héraldique_Lys_Lié.svg"
   xmlns:inkscape="http://www.inkscape.org/namespaces/inkscape"
   xmlns:sodipodi="http://sodipodi.sourceforge.net/DTD/sodipodi-0.dtd"
   xmlns="http://www.w3.org/2000/svg"
   xmlns:svg="http://www.w3.org/2000/svg"
   xmlns:rdf="http://www.w3.org/1999/02/22-rdf-syntax-ns#"
   xmlns:cc="http://creativecommons.org/ns#"
   xmlns:dc="http://purl.org/dc/elements/1.1/">
  <metadata
     id="metadata8">
    <rdf:RDF>
      <cc:Work
         rdf:about="">
        <dc:format>image/svg+xml</dc:format>
        <dc:type
           rdf:resource="http://purl.org/dc/dcmitype/StillImage" />
      </cc:Work>
    </rdf:RDF>
  </metadata>
  <defs
     id="defs6" />
  <sodipodi:namedview
     pagecolor="#ffffff"
     bordercolor="#666666"
     borderopacity="1"
     objecttolerance="10"
     gridtolerance="10"
     guidetolerance="10"
     inkscape:pageopacity="0"
     inkscape:pageshadow="2"
     inkscape:window-width="1920"
     inkscape:window-height="1057"
     id="namedview4"
     showgrid="true"
     inkscape:zoom="5.2757188"
     inkscape:cx="74.302671"
     inkscape:cy="71.933326"
     inkscape:window-x="-8"
     inkscape:window-y="-8"
     inkscape:window-maximized="1"
     inkscape:current-layer="svg2"
     inkscape:snap-global="false"
     inkscape:showpageshadow="2"
     inkscape:pagecheckerboard="true"
     inkscape:deskcolor="#d1d1d1">
    <inkscape:grid
       type="xygrid"
       id="grid3779"
       empspacing="5"
       visible="true"
       enabled="true"
       snapvisiblegridlinesonly="true"
       originx="0"
       originy="0"
       spacingy="1"
       spacingx="1"
       units="px" />
  </sodipodi:namedview>
  <g
     id="g2993"
     transform="matrix(0.71664938,0,0,0.71664938,148.92472,62.748851)">
    <path
       sodipodi:nodetypes="csssssssssssssssccscsccssssssssssssssssssssssssssssssssssccccccssscssssssssssssscc"
       style="fill:#ffffff;stroke:none;stroke-width:1.39538252;stroke-opacity:1;fill-opacity:1"
       d="m -126.64987,103.53459 c -0.92391,-1.72633 -1.67983,-3.91232 -1.67983,-4.857764 0,-0.945444 -1.33599,-3.417407 -2.96885,-5.493254 -1.63287,-2.075848 -3.72704,-5.003475 -3.72704,-6.50583 0,-1.117912 0.93772,-4.414553 0.28811,-4.68804 -0.64961,-0.273486 -1.18063,2.855278 -2.98082,3.215317 -5.10514,1.021032 -12.87775,-0.747381 -12.87775,-2.807627 0,-0.779916 1.87758,-2.388957 4.1724,-3.575649 5.33558,-2.759143 13.15129,-10.731105 14.10818,-14.390223 1.21459,-4.644583 -2.50422,-3.145894 -5.0426,2.03219 -4.93902,10.075153 -20.52901,15.690979 -30.43959,10.964961 -7.88068,-3.758041 -8.95399,-13.927157 -2.01461,-19.087518 3.11337,-2.31521 5.48615,-3.484202 8.90717,-2.183535 3.02788,1.1512 3.02075,3.291538 2.49287,5.310132 -1.31782,5.039394 0.91649,6.182935 6.01842,3.080252 5.53763,-3.367622 7.82842,-9.08773 3.34155,-8.548002 l -2.10488,0.390002 -0.0674,-2.822255 c -0.94009,-0.811003 -2.00355,-0.774328 -2.47092,-1.298135 -0.46736,-0.523806 -0.90726,-0.660356 -0.97933,-2.196908 0.60744,-0.573426 0.77371,-1.173532 1.58244,-1.557305 0.80874,-0.383773 2.07039,0.01743 2.21492,-1.207047 l -0.0171,-1.768621 3.53064,-0.198848 c 4.91256,-0.276679 3.49233,-10.104502 -2.40146,-15.66306 -6.46601,-6.09824 -11.86943,-7.556842 -16.57431,-4.474084 -4.37715,2.868019 -4.5118,7.039685 -0.43987,13.628216 2.94572,4.766266 2.98077,5.241963 0.6484,8.801596 -3.09689,4.726466 -8.73433,4.413768 -9.43516,-0.523353 -0.30888,-2.175916 -3.30015,-5.168031 -8.47775,-8.480097 -11.10881,-7.106224 -16.00205,-14.945759 -16.76018,-26.851748 -1.5925,-25.009978 17.54902,-36.52343 39.16233,-23.555776 18.445,11.06671492 27.24784,24.794434 28.16618,43.92418 0.3526,7.344822 1.08743,12.721649 1.72182,12.504643 0.6344,-0.217006 1.16834,-6.027846 1.11915,-13.476455 -0.0682,-10.320591 -0.81753,-13.624532 -5.72367,-25.2351973 -8.95333,-21.1885497 -11.59878,-32.3342377 -10.78919,-45.4563347 0.77861,-12.61959 4.16166,-21.752352 10.95824,-29.582463 2.44433,-2.816035 5.38871,-7.124037 6.54307,-9.573336 3.03893,-6.448002 7.06298,-5.76595 11.10767,1.882689 1.8428,3.484777 5.00904,8.306977 7.0361,10.715998 5.50381,6.54091 8.79623,18.110102 8.65306,30.405936 -0.15441,13.26237 -2.12436,22.285061 -7.60577,34.83566322 -6.66999,15.27209378 -9.16174,25.61221878 -8.67047,35.98026278 0.28826,6.083574 0.81236,10.136496 1.56619,9.753588 0.75382,-0.382908 1.73737,-5.201645 1.87228,-11.500171 0.29228,-13.645671 3.96663,-23.357788 12.262,-32.41126208 19.492417,-21.27389792 41.270897,-24.06236792 51.820739,-6.63503562 5.303622,8.761058 4.871566,22.8377517 -0.984381,32.0716067 -2.673728,4.216029 -7.613266,9.010388 -12.511418,12.143709 -5.252246,3.359819 -8.261053,6.357681 -8.570778,8.5396 -0.619376,4.363404 -6.732647,4.574063 -9.551181,0.329128 -1.742609,-2.62451 -1.617027,-3.773655 0.932262,-8.530055 3.879006,-7.237402 3.717887,-10.871298 -0.607708,-13.705532 -4.518585,-2.960695 -9.290798,-1.79933 -16.28017,3.961967 -3.967755,3.270578 -5.401055,5.605111 -5.401055,8.797217 0,3.355582 0.68881,6.785268 2.96885,7.025806 l 1.694645,0.178781 0.0679,2.548657 c 1.941655,1.141606 3.479635,-0.08847 3.80498,2.704391 0.0308,4.064238 -2.678475,2.200411 -4.196975,3.678107 l -0.2901,2.41 -2.72643,0.117656 0.44282,1.771686 c 0.0902,0.360971 0.46046,1.570506 1.2844,2.563289 2.524325,3.041645 9.682393,6.714448 10.836606,5.560234 0.496866,-0.496866 0.511666,-2.464157 0.03281,-4.37176 -0.699104,-2.785476 -0.09011,-3.765062 3.093078,-4.975312 9.837778,-3.740321 17.229554,10.054014 9.335776,17.422187 -4.728705,4.413829 -10.309187,5.404875 -18.87001,3.351145 -7.16494,-1.718843 -12.4562,-6.073458 -17.32417,-14.257545 -2.79168,-4.69339 -3.51026,-1.646478 -0.88842,3.767051 1.4238,2.939812 5.41148,6.889758 9.55751,9.467074 3.91289,2.432391 7.11434,4.977939 7.11434,5.656781 0,1.90306 -7.69742,3.627414 -12.60014,2.646866 -1.80019,-0.360039 -3.16792,-3.53874 -3.81754,-3.265254 -0.64961,0.273486 0.89321,2.926917 0.89321,4.044829 0,1.502355 -1.20195,5.234164 -2.83481,7.310012 -1.63287,2.075847 -3.90706,4.576191 -3.90706,5.720132 0,1.143934 -0.91405,3.329934 -2.03123,4.857754 -1.96702,2.69008 -2.08434,2.67866 -3.71106,-0.3609 z"
       id="path2989"
       inkscape:connector-curvature="0" />
    <path
       sodipodi:nodetypes="scccccsscccccs"
       id="path3771"
       d="m -124.68383,45.21875 c -6.45574,-3.27e-4 -13.15654,0.02105 -26.16424,0.0625 L -151.1194,46 l 0.27133,1.71875 c 26.01538,-0.04016 26.78209,-0.03527 50.879315,0 l 0,-2.4375 c -12.048605,-0.04014 -18.259325,-0.06217 -24.715075,-0.0625 z m -0.31617,8.75 c -6.45575,-3.27e-4 -13.15657,0.02105 -26.16425,0.0625 l 0.0448,1.96875 -0.0448,0.46875 c 26.01538,-0.04016 26.78209,-0.03527 50.87932,0 l 0,-2.4375 c -12.04862,-0.04014 -18.25933,-0.06217 -24.71508,-0.0625 z"
       style="fill:none;fill-opacity:1;fill-rule:evenodd;stroke:none;stroke-width:1.39538252;stroke-linecap:butt;stroke-linejoin:miter;stroke-miterlimit:4;stroke-opacity:1;stroke-dasharray:none"
       inkscape:connector-curvature="0" />
  </g>
</svg>
